HIERARCHY
ROOT Hips
{
  OFFSET -65.5801 106.192 -22.9641
  CHANNELS 6 Xposition Yposition Zposition Zrotation Xrotation Yrotation
  JOINT ToSpine
  {
    OFFSET -2.69724 7.43032 -0.144315
    CHANNELS 3 Zrotation Xrotation Yrotation
    JOINT Spine
    {
      OFFSET -0.0310711 10.7595 1.96963
      CHANNELS 3 Zrotation Xrotation Yrotation
      JOINT Spine1
      {
        OFFSET 19.9056 3.91189 0.764692
        CHANNELS 3 Zrotation Xrotation Yrotation
        JOINT Neck
        {
          OFFSET 25.9749 7.03908 -0.130764
          CHANNELS 3 Zrotation Xrotation Yrotation
          JOINT Head
          {
            OFFSET 9.52751 0.295786 -0.907742
            CHANNELS 3 Zrotation Xrotation Yrotation
            End Site
            {
              OFFSET 16.4037 0.713936 2.7358
            }
          }
        }
        JOINT LeftShoulder
        {
          OFFSET 17.7449 4.33886 11.7777
          CHANNELS 3 Zrotation Xrotation Yrotation
          JOINT LeftArm
          {
            OFFSET 0.911315 1.27913 9.80584
            CHANNELS 3 Zrotation Xrotation Yrotation
            JOINT LeftForeArm
            {
              OFFSET 28.6126 1.18197 -3.53199
              CHANNELS 3 Zrotation Xrotation Yrotation
              JOINT LeftHand
              {
                OFFSET 27.5088 0.0218783 0.327423
                CHANNELS 3 Zrotation Xrotation Yrotation
                End Site
                {
                  OFFSET 18.6038 -0.000155887 0.382096
                }
              }
            }
          }
        }
        JOINT RightShoulder
        {
          OFFSET 17.1009 2.89543 -12.2328
          CHANNELS 3 Zrotation Xrotation Yrotation
          JOINT RightArm
          {
            OFFSET 1.4228 0.178766 -10.211
            CHANNELS 3 Zrotation Xrotation Yrotation
            JOINT RightForeArm
            {
              OFFSET 28.733 1.87905 2.64907
              CHANNELS 3 Zrotation Xrotation Yrotation
              JOINT RightHand
              {
                OFFSET 27.4588 0.290562 -0.101845
                CHANNELS 3 Zrotation Xrotation Yrotation
                End Site
                {
                  OFFSET 17.8396 -0.255518 -0.000602873
                }
              }
            }
          }
        }
      }
    }
  }
  JOINT LeftUpLeg
  {
    OFFSET -5.61296 -2.22332 -10.2353
    CHANNELS 3 Zrotation Xrotation Yrotation
    JOINT LeftLeg
    {
      OFFSET 2.56703 -44.7417 -7.93097
      CHANNELS 3 Zrotation Xrotation Yrotation
      JOINT LeftFoot
      {
        OFFSET 3.16933 -46.5642 -3.96578
        CHANNELS 3 Zrotation Xrotation Yrotation
        JOINT LeftToeBase
        {
          OFFSET 0.346054 -6.02161 12.8035
          CHANNELS 3 Zrotation Xrotation Yrotation
          End Site
          {
            OFFSET 0.134235 -1.35082 5.13018
          }
        }
      }
    }
  }
  JOINT RightUpLeg
  {
    OFFSET -5.7928 -1.72406 10.6446
    CHANNELS 3 Zrotation Xrotation Yrotation
    JOINT RightLeg
    {
      OFFSET -2.57161 -44.7178 -7.85259
      CHANNELS 3 Zrotation Xrotation Yrotation
      JOINT RightFoot
      {
        OFFSET -3.10148 -46.5936 -4.03391
        CHANNELS 3 Zrotation Xrotation Yrotation
        JOINT RightToeBase
        {
          OFFSET -0.0828122 -6.13587 12.8035
          CHANNELS 3 Zrotation Xrotation Yrotation
          End Site
          {
            OFFSET -0.131328 -1.35082 5.13018
          }
        }
      }
    }
  }
}
MOTION
Frames:	6
Frame Time:	0.0333333
-65.5848 106.179 -22.9687 5.98215 -74.9209 -82.1805 -70.1915 0 88.8779 70.4138 71.5734 18.0792 5.80624 21.3202 3.23279 -145.853 19.0743 171.057 -153.104 56.8347 167.593 2.35837 0.131675 -24.066 -102.208 63.2496 -93.9284 -13.4721 54.2947 12.8561 6.7831 -0.193118 -1.53751 0.388948 -1.36249 30.8055 -96.3284 -53.6067 81.2961 2.32552 -20.1674 13.2482 9.92171 -0.120893 -1.85188 -61.4087 -2.74977 98.2095 1.71289 19.3153 -15.261 3.10593 5.95719 -0.220854 -4.83851 -14.6064 11.1721 -61.0287 6.72603 82.0667 1.43639 19.7489 5.98625 -4.321 -6.37362 0.908659 1.7046 17.4014 -14.1426 
-65.6128 106.171 -22.9598 5.89987 -74.8933 -82.3442 -70.1915 0 88.8779 70.4073 71.6094 17.9204 5.79487 21.2867 3.47057 -146.324 19.0368 171.533 -153.722 56.8464 167.916 2.39228 0.0895676 -24.4966 -103.869 63.156 -92.5355 -13.2059 54.9284 13.0552 6.87667 -0.19781 -1.56635 0.368464 -1.25234 30.5684 -96.0918 -53.7054 81.4543 2.21422 -19.4124 13.3551 9.69556 -0.118235 -1.85979 -61.3807 -2.90646 98.0828 1.79295 19.3012 -15.115 3.1726 6.26829 -0.221341 -4.81787 -14.8349 10.5669 -60.945 6.71474 82.0945 1.3695 19.8866 6.27209 -4.46801 -6.5567 0.92388 2.30128 17.5321 -15.3901 
-65.6652 106.27 -22.8828 6.64831 -74.9716 -81.6605 -70.1915 0 88.8779 70.6927 71.5804 17.3173 5.87336 21.1601 3.59079 -146.926 18.8747 171.35 -153.351 56.491 166.514 2.39042 0.152606 -24.3871 -106.817 63.5859 -90.2966 -12.8145 56.3569 13.5313 7.0796 -0.231941 -2.00677 0.373153 -1.28168 30.5216 -95.7751 -53.7971 81.8136 2.21672 -18.9471 13.5241 9.6667 -0.164965 -2.45005 -61.2093 -2.85597 98.3515 1.54808 19.8339 -14.6014 4.08757 7.5958 -0.329239 -5.27444 -16.5048 12.7984 -61.2237 6.77972 82.3089 1.09317 19.6442 6.37378 -5.22852 -6.92212 0.983536 0.939022 19.2719 -13.3708 
-65.7126 106.267 -22.8439 6.13128 -74.782 -82.1355 -70.1915 0 88.8779 70.0718 71.568 18.0881 6.06137 21.25 3.43509 -146.819 18.824 171.202 -152.802 56.3622 166.375 2.38963 0.107677 -24.4413 -106.724 63.5587 -90.492 -12.7861 56.3642 13.5336 7.15018 -0.215375 -1.71635 0.379365 -1.31815 30.5171 -95.284 -53.9117 82.2602 2.10075 -18.5922 13.5511 10.1092 -0.180894 -2.54742 -60.9791 -2.73552 98.3833 1.53742 19.9046 -14.5313 3.78047 7.61088 -0.272772 -5.22153 -16.081 12.8342 -60.9393 6.75309 82.2437 1.24321 19.8113 6.36609 -5.22519 -6.97454 0.984464 1.03322 19.8338 -13.771 
-65.7603 106.157 -22.8093 6.68418 -74.7464 -81.5805 -70.1915 0 88.8779 70.799 71.5118 17.3263 5.88292 21.1284 3.40002 -146.671 18.8689 171.098 -152.637 56.3922 166.284 2.39739 0.242516 -24.337 -106.522 63.5971 -90.5677 -12.8563 56.3142 13.513 7.15569 -0.195681 -1.41239 0.36224 -1.21655 30.5619 -95.7023 -53.9669 81.8821 2.12869 -18.7877 13.4787 10.1437 -0.166328 -2.36344 -60.9843 -2.81756 98.2721 1.63111 19.8913 -14.6231 4.36565 7.01025 -0.401314 -5.11128 -15.4786 12.58 -61.021 6.96463 82.4515 1.05866 19.6415 6.19072 -5.22559 -6.8833 0.982108 1.84749 18.7975 -14.977 
-65.7954 106.05 -22.807 7.07885 -74.642 -81.1793 -70.1915 0 88.8779 70.9973 71.5098 17.1309 5.82059 21.0896 3.4551 -146.445 19.0096 171.211 -152.156 56.4676 166.277 2.41049 0.161059 -24.5938 -106.284 63.3586 -90.8584 -12.8577 56.1425 13.4478 7.24866 -0.227162 -1.85067 0.345464 -1.12096 30.475 -95.6273 -54.0268 81.8204 2.12447 -18.6898 13.5177 10.2959 -0.169288 -2.36745 -60.8612 -2.90807 98.1004 1.79513 19.9025 -14.6541 4.61141 6.66322 -0.456039 -5.23835 -16.5387 12.3002 -60.7388 6.93973 82.4116 1.14258 20.0272 6.11396 -5.35184 -6.95362 0.991759 1.60933 17.4035 -13.9474 
